<?xml version="1.0" encoding="UTF-8"?>
<svg width="512" height="512" viewBox="0 0 512 512" xmlns="http://www.w3.org/2000/svg">
  <!-- Green background -->
  <rect width="512" height="512" fill="#5CB85C" rx="64"/>
  
  <!-- Cloud shape -->
  <path d="M 150 180 
           C 150 150, 180 120, 220 120
           C 240 100, 280 100, 300 120
           C 340 120, 370 150, 370 180
           C 390 180, 410 200, 410 230
           C 410 260, 390 280, 370 280
           L 170 280
           C 140 280, 120 260, 120 230
           C 120 200, 140 180, 150 180 Z" 
        fill="white" stroke="white" stroke-width="8"/>
  
  <!-- IoT device/chip symbol -->
  <g transform="translate(256, 320)">
    <!-- Central circle -->
    <circle cx="0" cy="0" r="20" fill="white" stroke="white" stroke-width="6"/>
    
    <!-- Connection lines -->
    <line x1="-50" y1="0" x2="-25" y2="0" stroke="white" stroke-width="8" stroke-linecap="round"/>
    <line x1="25" y1="0" x2="50" y2="0" stroke="white" stroke-width="8" stroke-linecap="round"/>
    <line x1="0" y1="-50" x2="0" y2="-25" stroke="white" stroke-width="8" stroke-linecap="round"/>
    <line x1="0" y1="25" x2="0" y2="50" stroke="white" stroke-width="8" stroke-linecap="round"/>
    
    <!-- Corner dots -->
    <circle cx="-35" cy="-35" r="8" fill="white"/>
    <circle cx="35" cy="-35" r="8" fill="white"/>
    <circle cx="-35" cy="35" r="8" fill="white"/>
    <circle cx="35" cy="35" r="8" fill="white"/>
    
    <!-- Diagonal connection lines -->
    <line x1="-35" y1="-35" x2="-15" y2="-15" stroke="white" stroke-width="6" stroke-linecap="round"/>
    <line x1="35" y1="-35" x2="15" y2="-15" stroke="white" stroke-width="6" stroke-linecap="round"/>
    <line x1="-35" y1="35" x2="-15" y2="15" stroke="white" stroke-width="6" stroke-linecap="round"/>
    <line x1="35" y1="35" x2="15" y2="15" stroke="white" stroke-width="6" stroke-linecap="round"/>
    
    <!-- End point circles -->
    <circle cx="-50" cy="0" r="8" fill="white"/>
    <circle cx="50" cy="0" r="8" fill="white"/>
    <circle cx="0" cy="-50" r="8" fill="white"/>
    <circle cx="0" cy="50" r="8" fill="white"/>
  </g>
</svg>